# xmcd
#
# Track frame offsets:
#	150
#	20372
#	43360
#	68932
#
# Disc length: 1319 seconds
#
# Revision: 1
# Processed by: cddbd v1.5.1PL0 Copyright (c) Steve Scherf et al.
# Submitted via: CDex 1.50Beta5
#
DISCID=33052504
DTITLE=F.O.H - TAKE IT SLOW
DYEAR=2000
DGENRE=Rock
TTITLE0=TAKE IT SLOW
TTITLE1=裸踊夜
TTITLE2=裸踊夜
TTITLE3=裸踊夜
EXTD=
EXTT0=
EXTT1=
EXTT2=
EXTT3=
PLAYORDER=
